<?xml version="1.0" encoding="UTF-8" standalone="no"?>
<!DOCTYPE svg PUBLIC "-//W3C//DTD SVG 1.1//EN" "http://www.w3.org/Graphics/SVG/1.1/DTD/svg11.dtd">
<svg width="100%" height="100%" viewBox="0 0 38 27" version="1.1" xmlns="http://www.w3.org/2000/svg" xmlns:xlink="http://www.w3.org/1999/xlink" xml:space="preserve" xmlns:serif="http://www.serif.com/" style="fill-rule:evenodd;clip-rule:evenodd;stroke-linecap:round;stroke-linejoin:round;stroke-miterlimit:1.5;">
    <g transform="matrix(1,0,0,1,-51.785,-2.84945)">
        <g>
            <g transform="matrix(0.515054,0,0,0.515054,46.8389,1.56972)">
                <path d="M33.306,24.918C31.647,26.785 29.692,29.62 27.926,33.189C26.451,36.172 25.998,38.992 26.664,43.362C27.602,45.983 29.235,48.403 32.08,50.47C33.772,51.25 35.817,51.985 38.493,52.641C43.036,53.555 47.58,53.577 52.123,52.523C55.175,51.621 57.543,50.07 59.365,48C61.352,46.278 62.446,44.212 62.624,41.785C62.686,38.598 62.267,35.431 60.791,32.306C60.075,29.652 59.335,27.741 58.583,26.256C59.598,25.904 60.531,25.883 61.3,26.515C63.41,28.716 65.613,30.148 67.908,30.812C70.18,31.933 71.442,32.102 72.659,32.231C75.56,32.238 77.842,31.787 79.328,30.748C80.892,29.772 81.68,28.68 81.583,27.458C81.936,25.835 81.367,24.634 80.244,23.688C77.376,22.709 73.631,22.211 68.179,22.771C62.729,21.428 62.693,18.543 60.054,18.649L57.633,20.332L53.384,18.732C51.652,17.68 49.853,17.118 48,16.949C45.308,16.275 42.667,16.295 40.097,17.281C38.345,17.705 37.695,18.836 36.437,19.507C35.111,18.855 33.955,17.787 32.847,18.044C32.533,16.962 31.911,16.38 31.105,16.098C28.145,14.977 26.079,14.481 22.686,14.614C18.424,14.781 16.553,14.758 14.083,15.32C11.22,16.106 9.869,17.463 9.603,19.229C9.603,19.229 10.025,22.745 13.604,24.343C17.184,25.941 20.086,26.665 20.086,26.665C22.405,26.777 24.682,26.76 26.878,26.503L30.776,23.754L32.784,23.119L33.306,24.918Z"/>
            </g>
            <g transform="matrix(0.571192,-0.00901768,0.00901768,0.571192,43.8914,1.69461)">
                <path d="M33.775,12.371C34.083,11.483 36.06,8.138 36.933,8.408C38.355,7.184 40.204,5.989 42.538,4.828C44.286,3.893 46.306,3.477 48.665,3.711C50.971,3.627 53.124,4.186 55.061,5.64C56.702,6.598 57.643,7.905 58.421,9.293C58.674,10.572 59.005,12.227 59.652,15.167L59.98,18.448C59.576,19.163 58.828,19.753 57.493,20.129C56.04,19.238 54.909,18.14 51.501,16.949C49.228,15.964 45.749,15.564 42.446,15.929C41.552,16.041 40.706,16.394 39.999,16.952C39.369,17.48 38.361,17.879 36.876,18.4L33.229,17.482L32.678,16.07C32.678,16.07 33.576,12.943 33.775,12.371Z" style="fill:rgb(242,242,242);stroke:black;stroke-width:1.75px;"/>
            </g>
            <g transform="matrix(0.515054,0,0,0.515054,46.8389,1.56972)">
                <path d="M40.915,19.52C40.855,19.459 40.613,19.639 40.534,19.678C40.219,19.836 39.613,20.472 39.454,20.79C39.293,21.113 38.826,21.641 38.628,21.838C37.954,22.512 38.746,23.957 39.137,24.347C39.608,24.819 40.951,24.366 41.36,24.093C41.847,23.769 42.36,23.356 42.694,22.855C42.87,22.59 42.907,22.229 43.075,22.061C43.222,21.913 43.007,21.467 43.107,21.266C43.659,20.162 42.343,19.583 41.519,19.583" style="fill:url(#_Linear1);stroke:white;stroke-width:1.94px;"/>
            </g>
            <g transform="matrix(0.515054,0,0,0.515054,46.8389,1.56972)">
                <path d="M48.285,21.366C48.201,21.619 48.114,21.835 47.999,22.065C47.679,22.706 48.478,23.782 48.825,24.13C50.036,25.34 51.449,26.406 53.335,25.464C53.737,25.263 53.431,24.308 53.431,23.939C53.431,22.387 52.346,20.907 50.921,20.432C50.025,20.133 49.387,20.972 48.666,20.972" style="fill:url(#_Linear2);stroke:white;stroke-width:1.94px;"/>
            </g>
            <g transform="matrix(0.515054,0,0,0.515054,46.8389,1.56972)">
                <path d="M40.802,20.989C39.453,22.101 39.63,23.053 39.737,23.096C39.925,23.343 40.283,23.379 40.802,23.212C41.39,22.859 41.785,22.466 41.96,22.03C42.136,21.683 42.115,21.336 41.96,20.989C41.96,20.989 42.027,19.98 40.802,20.989Z" style="fill:url(#_Linear3);stroke:black;stroke-width:1.94px;"/>
            </g>
            <g transform="matrix(0.515054,0,0,0.515054,46.8389,1.56972)">
                <path d="M49.81,21.43C49.315,21.635 49.3,22.061 49.278,22.195C49.277,22.2 49.365,22.495 49.547,23.096C49.72,23.666 50.127,24.148 50.734,24.553C51.142,24.728 51.576,24.749 52.046,24.553C52.389,24.08 52.313,23.59 52.139,23.096C52.043,22.667 51.902,22.253 51.495,21.927C51.297,21.646 50.996,21.423 50.509,21.307L49.81,21.43Z" style="fill:url(#_Linear4);stroke:black;stroke-width:1.94px;"/>
            </g>
            <g transform="matrix(0.515054,0,0,0.515054,46.8389,1.56972)">
                <path d="M40.88,32.89C42.027,32.89 43.375,34.432 44.025,35.081C44.083,35.14 44.796,34.452 44.895,34.353C45.236,34.013 46.181,33.449 46.592,33.449" style="fill:none;stroke:white;stroke-width:1.94px;"/>
            </g>
            <g transform="matrix(0.515054,0,0,0.515054,46.8389,1.56972)">
                <path d="M43.385,45.175C43.665,44.614 43.641,44.266 43.634,43.665C43.624,42.781 43.617,41.284 43.592,40.864C43.501,39.334 43.398,38.934 43.654,37.569C43.815,36.71 44.13,36.011 44.13,35.25" style="fill:none;stroke:white;stroke-width:1.94px;"/>
            </g>
            <g transform="matrix(0.511742,0.0206805,-0.0206805,0.511742,47.3481,1.17009)">
                <path d="M29.793,19.475C27.477,19.15 28.278,19.539 26.468,19.236C24.795,18.956 23.397,17.937 21.818,17.411C21.249,17.221 20.55,17.285 19.976,17.093C19.296,16.867 17.981,16.926 17.332,17.142C16.65,17.369 15.378,17.413 14.887,17.904C14.544,18.246 14.032,18.664 13.648,19.048C13.327,19.368 12.951,20.48 13.235,21.049C13.478,21.536 13.496,22.29 13.868,22.663C14.406,23.201 15.107,23.568 15.837,23.933C16.115,24.072 16.724,24.123 16.93,24.329C17.077,24.476 17.983,24.561 18.205,24.57C19.109,24.61 19.219,24.632 20.133,24.837C20.666,24.958 21.839,25.116 22.388,24.933C22.936,24.75 23.782,25.125 24.293,24.869C25.06,24.486 26.188,24.485 26.974,24.092C28.168,23.495 28.152,23.615 28.668,23.188C28.847,23.039 29.162,22.789 29.678,22.509C30.329,22.157 32.309,20.81 32.109,20.435C32.226,19.97 30.218,19.517 29.793,19.475Z" style="fill:rgb(242,242,242);"/>
            </g>
            <g transform="matrix(0.515054,0,0,0.515054,46.8389,1.56972)">
                <path d="M60.795,24.531C62.101,25.184 63.136,26.273 64.479,26.945C66.192,27.801 67.646,28.703 69.212,29.486C70.341,30.05 71.327,30.224 72.992,30.438C73.384,30.489 74.141,30.407 74.516,30.407C75.886,30.407 77.439,30.194 78.354,29.28C79.06,28.574 79.025,27.061 78.449,26.485C78.048,26.084 77.554,25.714 77.026,25.451C75.122,24.505 72.206,24.596 69.494,25.174C68.828,25.316 68.588,25.322 67.878,25.218C67.348,25.14 66.863,25.103 66.449,24.976C65.861,24.797 65.677,24.964 64.546,24.692C64.149,24.597 62.066,24.278 61.813,24.132C61.75,24.095 60.863,24.034 60.797,24.1C60.757,24.14 60.797,24.377 60.797,24.431" style="fill:rgb(242,242,242);"/>
            </g>
            <g transform="matrix(0.515054,0,0,0.515054,46.8389,1.56972)">
                <path d="M36.933,8.408C36.461,8.954 38.991,6.196 42.538,4.828C46.085,3.459 42.196,4.405 46.049,3.711C49.902,3.016 54.816,5.554 54.944,5.617C55.071,5.681 56.054,5.563 58.555,8.909C61.057,12.255 59.246,22.211 59.98,18.064" style="fill:none;"/>
            </g>
        </g>
    </g>
    <defs>
        <linearGradient id="_Linear1" x1="0" y1="0" x2="1" y2="0" gradientUnits="userSpaceOnUse" gradientTransform="matrix(-2.66933,2.72838,-2.72838,-2.66933,41.8064,20.3679)"><stop offset="0" style="stop-color:white;stop-opacity:1"/><stop offset="1" style="stop-color:rgb(241,238,240);stop-opacity:1"/></linearGradient>
        <linearGradient id="_Linear2" x1="0" y1="0" x2="1" y2="0" gradientUnits="userSpaceOnUse" gradientTransform="matrix(2.37058,3.17037,-3.17037,2.37058,49.8941,21.8582)"><stop offset="0" style="stop-color:white;stop-opacity:1"/><stop offset="1" style="stop-color:rgb(240,241,240);stop-opacity:1"/></linearGradient>
        <linearGradient id="_Linear3" x1="0" y1="0" x2="1" y2="0" gradientUnits="userSpaceOnUse" gradientTransform="matrix(-0.496225,0.271763,-0.271763,-0.496225,41.2984,21.7581)"><stop offset="0" style="stop-color:black;stop-opacity:1"/><stop offset="1" style="stop-color:rgb(2,27,0);stop-opacity:1"/></linearGradient>
        <linearGradient id="_Linear4" x1="0" y1="0" x2="1" y2="0" gradientUnits="userSpaceOnUse" gradientTransform="matrix(0.290769,1.06635,-1.06635,0.290769,50.7336,22.0299)"><stop offset="0" style="stop-color:black;stop-opacity:1"/><stop offset="1" style="stop-color:black;stop-opacity:1"/></linearGradient>
    </defs>
</svg>
